<svg width="50" height="50" viewBox="0 0 50 50" fill="none" xmlns="http://www.w3.org/2000/svg">
	<path fill-rule="evenodd" clip-rule="evenodd" d="M17.6684 7.41572C16.7822 7.41572 16.0637 8.24749 16.0637 9.27352V40.7265C16.0637 41.7525 16.7822 42.5843 17.6684 42.5843H32.3316C33.2178 42.5843 33.9363 41.7525 33.9363 40.7265V9.27352C33.9363 8.24749 33.2178 7.41572 32.3316 7.41572H17.6684ZM14.2857 9.27352C14.2857 7.11057 15.8002 5.35715 17.6684 5.35715H32.3316C34.1998 5.35715 35.7143 7.11057 35.7143 9.27352V40.7265C35.7143 42.8894 34.1998 44.6429 32.3316 44.6429H17.6684C15.8002 44.6429 14.2857 42.8894 14.2857 40.7265V9.27352Z" fill="#0082B9"/>
	<path fill-rule="evenodd" clip-rule="evenodd" d="M24.9912 39.2174C25.309 39.2174 25.5666 38.9598 25.5666 38.642C25.5666 38.3242 25.309 38.0666 24.9912 38.0666C24.6734 38.0666 24.4158 38.3242 24.4158 38.642C24.4158 38.9598 24.6734 39.2174 24.9912 39.2174ZM23.7809 38.642C23.7809 37.9735 24.3227 37.4317 24.9912 37.4317C25.6596 37.4317 26.2015 37.9735 26.2015 38.642C26.2015 39.3104 25.6596 39.8523 24.9912 39.8523C24.3227 39.8523 23.7809 39.3104 23.7809 38.642Z" fill="#0082B9"/>
	<path fill-rule="evenodd" clip-rule="evenodd" d="M30.098 12.4322C30.4057 12.8175 30.3429 13.3793 29.9576 13.687L24.2609 18.2373C23.8756 18.545 23.3138 18.4822 23.0061 18.0969C22.6983 17.7116 22.7612 17.1498 23.1465 16.842L28.8431 12.2918C29.2284 11.984 29.7902 12.0469 30.098 12.4322Z" fill="#0082B9"/>
	<path fill-rule="evenodd" clip-rule="evenodd" d="M30.098 16.5944C30.4057 16.9797 30.3429 17.5416 29.9576 17.8493L24.2609 22.3996C23.8756 22.7073 23.3138 22.6445 23.0061 22.2592C22.6983 21.8739 22.7612 21.3121 23.1465 21.0043L28.8431 16.4541C29.2284 16.1463 29.7902 16.2092 30.098 16.5944Z" fill="#0082B9"/>
</svg>
